<svg width="328" height="55" viewBox="0 0 328 55" fill="none" xmlns="http://www.w3.org/2000/svg">
<path d="M320.486 50.975V45.9012H322.94C323.297 45.9012 323.614 45.97 323.889 46.1075C324.168 46.245 324.384 46.4398 324.535 46.6919C324.691 46.944 324.769 47.2465 324.769 47.5994C324.769 47.9569 324.689 48.2617 324.528 48.5138C324.368 48.7613 324.145 48.9515 323.861 49.0844C323.582 49.2127 323.259 49.2769 322.892 49.2769H321.242V48.28H322.631C322.837 48.28 323.004 48.2227 323.132 48.1081C323.261 47.9935 323.325 47.824 323.325 47.5994C323.325 47.3656 323.261 47.196 323.132 47.0906C323.004 46.9806 322.839 46.9256 322.637 46.9256H321.874V50.975H320.486ZM323.786 48.6513L324.906 50.975H323.387L322.356 48.6513H323.786ZM322.5 54C321.739 54 321.026 53.8579 320.362 53.5738C319.697 53.2896 319.113 52.8954 318.609 52.3913C318.105 51.8871 317.71 51.3027 317.426 50.6381C317.142 49.9735 317 49.2608 317 48.5C317 47.7392 317.142 47.0265 317.426 46.3619C317.71 45.6973 318.105 45.1129 318.609 44.6088C319.113 44.1046 319.697 43.7104 320.362 43.4263C321.026 43.1421 321.739 43 322.5 43C323.261 43 323.974 43.1421 324.638 43.4263C325.303 43.7104 325.887 44.1046 326.391 44.6088C326.895 45.1129 327.29 45.6973 327.574 46.3619C327.858 47.0265 328 47.7392 328 48.5C328 49.2608 327.858 49.9735 327.574 50.6381C327.29 51.3027 326.895 51.8871 326.391 52.3913C325.887 52.8954 325.303 53.2896 324.638 53.5738C323.974 53.8579 323.261 54 322.5 54ZM322.5 52.5013C323.242 52.5013 323.916 52.3225 324.521 51.965C325.126 51.6029 325.608 51.1194 325.965 50.5144C326.327 49.9094 326.508 49.2379 326.508 48.5C326.508 47.7621 326.327 47.0906 325.965 46.4856C325.608 45.8806 325.124 45.3994 324.514 45.0419C323.909 44.6798 323.238 44.4987 322.5 44.4987C321.762 44.4987 321.091 44.6798 320.486 45.0419C319.881 45.3994 319.397 45.8806 319.035 46.4856C318.677 47.0906 318.499 47.7621 318.499 48.5C318.499 49.2379 318.677 49.9094 319.035 50.5144C319.397 51.1194 319.881 51.6029 320.486 51.965C321.091 52.3225 321.762 52.5013 322.5 52.5013Z" fill="white"/>
<path d="M17.28 53.712H35.352L46.944 29.736H47.088L58.608 53.712H76.896L94.104 16.56H76.464L66.6 40.824H66.528L54.72 16.56H39.384L27.504 40.392H27.432L17.568 16.56H0L17.28 53.712Z" fill="white"/>
<path d="M112.83 54.864C123.054 54.864 131.19 51.336 134.862 45.648H134.934L137.238 53.712H151.998V29.664C151.998 20.52 141.198 15.336 124.854 15.336C113.118 15.336 101.454 18.504 94.2542 23.4L98.7182 32.256C105.774 27.72 115.854 24.84 124.854 24.84C131.118 24.84 135.222 26.208 135.222 28.008C135.222 28.728 134.286 29.304 132.702 29.448L118.518 30.744C103.11 32.184 94.1102 37.224 94.1102 44.64C94.1102 51.12 101.022 54.864 112.83 54.864ZM118.878 44.784C113.838 44.784 111.174 43.704 111.174 41.832C111.174 39.888 114.126 38.808 119.67 38.376L134.934 37.008V37.152C134.934 41.688 128.526 44.784 118.878 44.784Z" fill="white"/>
<path d="M157.144 53.712H174.208V0H157.144V53.712Z" fill="white"/>
<path d="M179.995 53.712H197.059V0H179.995V53.712Z" fill="white"/>
<path d="M233.735 54.864C243.671 54.864 253.175 52.632 258.215 49.392L253.535 41.328C249.719 43.488 242.303 45.072 234.959 45.072C227.975 45.072 221.495 43.344 219.551 39.024H258.431C258.791 37.8 258.935 36.216 258.935 35.136C258.935 23.184 247.775 15.336 230.855 15.336C213.647 15.336 201.623 23.472 201.623 35.064C201.623 47.16 214.583 54.864 233.735 54.864ZM219.263 31.752C219.911 27.576 224.591 24.624 230.711 24.624C236.687 24.624 241.583 27.504 241.799 31.752H219.263Z" fill="white"/>
<path d="M291.243 54.864C300.387 54.864 306.795 52.704 312.555 47.52L308.955 37.944C304.923 41.616 301.179 43.416 296.139 43.416C290.955 43.416 288.651 41.112 288.651 36.648V26.928H311.331V16.56H288.651V3.6L271.659 6.624V16.56H261.291V26.928H271.659L271.731 40.464C271.731 49.392 279.147 54.864 291.243 54.864Z" fill="white"/>
</svg>
